<svg width="64" height="64" viewBox="0 0 64 64" fill="none" xmlns="http://www.w3.org/2000/svg">
  <rect width="64" height="64" rx="18" fill="#F6F1F8"/>
  <circle cx="32" cy="32" r="23" fill="#FFFFFF"/>
  <circle cx="32" cy="32" r="26" fill="url(#glow)" fill-opacity="0.55"/>
  <ellipse cx="32" cy="46" rx="10.5" ry="2.5" fill="#D7C9CF" fill-opacity="0.7"/>
  <path d="M23 26.5C23 23.4624 25.4624 21 28.5 21H35.5C38.5376 21 41 23.4624 41 26.5V29H23V26.5Z" fill="#8A4B22"/>
  <path d="M21 29H43L40.4 44.2C40.07 46.13 38.4 47.54 36.44 47.54H27.56C25.6 47.54 23.93 46.13 23.6 44.2L21 29Z" fill="#E7772F"/>
  <path d="M19.5 28.25C19.5 26.46 20.96 25 22.75 25H41.25C43.04 25 44.5 26.46 44.5 28.25V30.5H19.5V28.25Z" fill="#F08C3A"/>
  <path d="M25 33.5C25.58 38.18 29.54 41.75 34.29 41.75H39.95L40.4 44.2C40.07 46.13 38.4 47.54 36.44 47.54H27.56C25.6 47.54 23.93 46.13 23.6 44.2L21.91 34.32C22.89 33.8 23.93 33.5 25 33.5Z" fill="#D96626"/>
  <path d="M31 20.5C31 17.46 33.46 15 36.5 15C37.33 15 38 15.67 38 16.5C38 17.33 37.33 18 36.5 18C35.12 18 34 19.12 34 20.5V23H31V20.5Z" fill="#56A533"/>
  <path d="M33 20.5C33 18.01 34.89 16 37.23 16H40.5C41.33 16 42 16.67 42 17.5C42 18.33 41.33 19 40.5 19H38.2C37.16 19 36.32 19.82 36.32 20.83V23H33V20.5Z" fill="#76C043"/>
  <path d="M31.8 23C29.25 23 27.19 20.94 27.19 18.39V17.89C27.19 17.12 27.81 16.5 28.58 16.5H31.8C34.35 16.5 36.41 18.56 36.41 21.11V21.61C36.41 22.38 35.79 23 35.02 23H31.8Z" fill="#82D34A"/>
  <defs>
    <radialGradient id="glow" cx="0" cy="0" r="1" gradientUnits="userSpaceOnUse" gradientTransform="translate(32 31) rotate(90) scale(27)">
      <stop stop-color="#F2E8F4"/>
      <stop offset="1" stop-color="#F2E8F4" stop-opacity="0"/>
    </radialGradient>
  </defs>
</svg>
